# xmcd
#
# Track frame offsets:
#	150
#	10999
#	22754
#	33925
#	46567
#	59074
#	70815
#	83010
#	96708
#	107474
#	119691
#	133581
#	146220
#	158244
#	172101
#	183806
#	196540
#	207829
#	220943
#	233424
#	245086
#	257757
#	269672
#	282252
#	292900
#	305657
#	318190
#	330771
#	341663
#
# Disc length: 4732 seconds
#
# Revision: 0
# Processed by: cddbd v1.5.2PL0 Copyright (c) Steve Scherf et al.
# Submitted via: dBpowerAMP V4.0
#
DISCID=a2127a1d
DTITLE=Various Artist - The Best of Drexel Records
DYEAR=2001
DGENRE=Blues
TTITLE0=Gems - Talk About The Weather
TTITLE1=Gaynotes - For Only A Moment
TTITLE2=Roy Wright - I Tried
TTITLE3=Dave Turner - Atlantic Boardwalk
TTITLE4=Gems - Deed I Do
TTITLE5=Bobby Elvin - Give It All Baby
TTITLE6=Roy Wright - True Love
TTITLE7=Gems - You're Tired Of Love
TTITLE8=Hattie Randolph - He's Leaping Of Joy
TTITLE9=Roy Wright - I Hope It Lasts Forever
TTITLE10=Gems - I Thought You'd Care
TTITLE11=Dave Turner - I'm All Yours Sugar
TTITLE12=Bobby Elvin - The Blind Boy
TTITLE13=Roy Wright - I'm Lonely
TTITLE14=Ray Pettis - Ow, You're So Fine
TTITLE15=Gems - Kitty From New York City
TTITLE16=Roy Wright - I've Got It
TTITLE17=Bobby Elvin - Think Awhile
TTITLE18=Gems - Monkey Faced Baby
TTITLE19=Roy Wright - No Haps
TTITLE20=Gems - Old Man River
TTITLE21=Gaynotes - Pu Pu Pa Doo
TTITLE22=Ray Pettis - Please Tell Me When
TTITLE23=Roy Wright - You Promised
TTITLE24=Gems - The Darkest Night
TTITLE25=Dorothy Logan - Since I Fell For You
TTITLE26=Gems - Til The Day I Die
TTITLE27=Roy Wright - Who'll Volunteer
TTITLE28=Gems - One Woman Man
EXTD=An obscure compilation album that is commercially available (Amazon) but it looks like a bootleg.  No  liner notes, no record company, no year, inlay is simple computer artwork.  CD is numvered 'DRCD-900'.
EXTT0=
EXTT1=
EXTT2=
EXTT3=
EXTT4=
EXTT5=
EXTT6=
EXTT7=
EXTT8=
EXTT9=
EXTT10=
EXTT11=
EXTT12=
EXTT13=
EXTT14=
EXTT15=
EXTT16=
EXTT17=
EXTT18=
EXTT19=
EXTT20=
EXTT21=
EXTT22=
EXTT23=
EXTT24=
EXTT25=
EXTT26=
EXTT27=
EXTT28=
PLAYORDER=
